<svg xmlns="http://www.w3.org/2000/svg" viewBox="0 0 545.28 128" width="545" height="128" role="img" aria-label="Vepeen">
  <title>Vepeen</title>
  <path d="M128.00,64.00 C128.00,75.10 128.00,86.22 127.51,97.29 C127.24,100.75 126.83,104.21 126.00,107.58 C125.42,110.00 124.60,112.39 123.45,114.59 C122.46,116.46 121.21,118.22 119.72,119.72 C118.22,121.21 116.46,122.46 114.59,123.45 C112.39,124.60 110.00,125.42 107.58,126.00 C104.21,126.83 100.75,127.24 97.29,127.51 C86.22,128.00 75.10,128.00 64.00,128.00 C52.90,128.00 41.78,128.00 30.71,127.51 C27.25,127.24 23.79,126.83 20.42,126.00 C18.00,125.42 15.61,124.60 13.41,123.45 C11.54,122.46 9.78,121.21 8.28,119.72 C6.79,118.22 5.54,116.46 4.55,114.59 C3.40,112.39 2.58,110.00 2.00,107.58 C1.17,104.21 0.76,100.75 0.49,97.29 C0.00,86.22 0.00,75.10 0.00,64.00 C0.00,52.90 0.00,41.78 0.49,30.71 C0.76,27.25 1.17,23.79 2.00,20.42 C2.58,18.00 3.40,15.61 4.55,13.41 C5.54,11.54 6.79,9.78 8.28,8.28 C9.78,6.79 11.54,5.54 13.41,4.55 C15.61,3.40 18.00,2.58 20.42,2.00 C23.79,1.17 27.25,0.76 30.71,0.49 C41.78,0.00 52.90,0.00 64.00,0.00 C75.10,0.00 86.22,0.00 97.29,0.49 C100.75,0.76 104.21,1.17 107.58,2.00 C110.00,2.58 112.39,3.40 114.59,4.55 C116.46,5.54 118.22,6.79 119.72,8.28 C121.21,9.78 122.46,11.54 123.45,13.41 C124.60,15.61 125.42,18.00 126.00,20.42 C126.83,23.79 127.24,27.25 127.51,30.71 C128.00,41.78 128.00,52.90 128.00,64.00 Z" fill="#101A1C"/>
  <g fill="none" stroke-width="11" stroke-linecap="round" stroke-linejoin="round">
    <path d="M57,64 L100,93" stroke="#5A6B70"/>
    <path d="M24,64 H57"     stroke="#CFE0E2"/>
    <path d="M57,64 L100,35" stroke="#2DD4BF"/>
  </g>
  <circle cx="100" cy="93" r="6.5" fill="#5A6B70"/>
  <circle cx="100" cy="35" r="6.5" fill="#2DD4BF"/>
  <path d="M196.80,103.68L170.24,24.32L188.63,24.32L206.76,86.68L207.08,86.68L225.20,24.32L243.61,24.32L217.04,103.68ZM274.37,104.89Q265.35,104.89 258.84,101.18Q252.34,97.46 248.85,90.59Q245.35,83.71 245.35,74.31L245.35,74.26Q245.35,64.88 248.85,57.97Q252.34,51.07 258.70,47.30Q265.06,43.51 273.70,43.51Q282.34,43.51 288.64,47.18Q294.93,50.86 298.36,57.51Q301.78,64.17 301.78,73.08L301.78,78.02L253.25,78.02L253.25,67.91L294.19,67.91L286.58,77.36L286.58,71.17Q286.58,66.00 284.98,62.51Q283.38,59.02 280.55,57.26Q277.71,55.51 273.97,55.51Q270.23,55.51 267.35,57.32Q264.47,59.13 262.82,62.64Q261.19,66.14 261.19,71.17L261.19,77.41Q261.19,82.28 262.82,85.75Q264.47,89.22 267.49,91.05Q270.52,92.90 274.69,92.90Q277.99,92.90 280.42,91.86Q282.84,90.84 284.36,89.24Q285.89,87.65 286.43,85.97L286.54,85.64L301.29,85.64L301.15,86.27Q300.46,89.52 298.55,92.80Q296.63,96.09 293.37,98.84Q290.09,101.59 285.37,103.24Q280.66,104.89 274.37,104.89ZM307.21,122.93L307.21,44.73L323.27,44.73L323.27,55.03L323.63,55.03Q325.25,51.43 327.87,48.86Q330.48,46.29 333.97,44.90Q337.46,43.51 341.64,43.51Q349.12,43.51 354.50,47.17Q359.90,50.83 362.79,57.70Q365.70,64.57 365.70,74.17L365.70,74.23Q365.70,83.80 362.82,90.66Q359.92,97.52 354.59,101.20Q349.26,104.89 341.86,104.89Q337.66,104.89 334.10,103.52Q330.53,102.17 327.88,99.65Q325.22,97.14 323.60,93.64L323.27,93.64L323.27,122.93ZM336.34,91.58Q340.35,91.58 343.28,89.47Q346.20,87.35 347.78,83.45Q349.37,79.57 349.37,74.23L349.37,74.17Q349.37,68.75 347.77,64.87Q346.18,60.97 343.25,58.90Q340.32,56.83 336.34,56.83Q332.45,56.83 329.49,58.94Q326.52,61.06 324.85,64.95Q323.19,68.84 323.19,74.20L323.19,74.26Q323.19,79.57 324.87,83.45Q326.54,87.35 329.49,89.47Q332.43,91.58 336.34,91.58ZM398.06,104.89Q389.04,104.89 382.53,101.18Q376.03,97.46 372.54,90.59Q369.05,83.71 369.05,74.31L369.05,74.26Q369.05,64.88 372.54,57.97Q376.03,51.07 382.39,47.30Q388.76,43.51 397.39,43.51Q406.03,43.51 412.33,47.18Q418.63,50.86 422.05,57.51Q425.47,64.17 425.47,73.08L425.47,78.02L376.94,78.02L376.94,67.91L417.88,67.91L410.27,77.36L410.27,71.17Q410.27,66.00 408.67,62.51Q407.07,59.02 404.24,57.26Q401.40,55.51 397.67,55.51Q393.93,55.51 391.04,57.32Q388.16,59.13 386.51,62.64Q384.88,66.14 384.88,71.17L384.88,77.41Q384.88,82.28 386.51,85.75Q388.16,89.22 391.18,91.05Q394.21,92.90 398.39,92.90Q401.69,92.90 404.11,91.86Q406.53,90.84 408.05,89.24Q409.58,87.65 410.12,85.97L410.23,85.64L424.98,85.64L424.83,86.27Q424.14,89.52 422.24,92.80Q420.33,96.09 417.06,98.84Q413.78,101.59 409.06,103.24Q404.36,104.89 398.06,104.89ZM457.74,104.89Q448.72,104.89 442.22,101.18Q435.71,97.46 432.22,90.59Q428.73,83.71 428.73,74.31L428.73,74.26Q428.73,64.88 432.22,57.97Q435.71,51.07 442.08,47.30Q448.45,43.51 457.08,43.51Q465.72,43.51 472.01,47.18Q478.31,50.86 481.73,57.51Q485.16,64.17 485.16,73.08L485.16,78.02L436.62,78.02L436.62,67.91L477.57,67.91L469.95,77.36L469.95,71.17Q469.95,66.00 468.35,62.51Q466.76,59.02 463.93,57.26Q461.10,55.51 457.36,55.51Q453.62,55.51 450.73,57.32Q447.84,59.13 446.21,62.64Q444.56,66.14 444.56,71.17L444.56,77.41Q444.56,82.28 446.21,85.75Q447.84,89.22 450.87,91.05Q453.89,92.90 458.07,92.90Q461.37,92.90 463.79,91.86Q466.21,90.84 467.73,89.24Q469.26,87.65 469.82,85.97L469.92,85.64L484.66,85.64L484.53,86.27Q483.84,89.52 481.92,92.80Q480.01,96.09 476.74,98.84Q473.47,101.59 468.76,103.24Q464.04,104.89 457.74,104.89ZM490.59,103.68L490.59,44.73L506.65,44.73L506.65,54.43L506.97,54.43Q509.26,49.35 513.77,46.43Q518.28,43.51 524.96,43.51Q534.67,43.51 539.97,49.38Q545.28,55.26 545.28,65.62L545.28,103.68L529.23,103.68L529.23,68.94Q529.23,63.18 526.52,60.00Q523.81,56.83 518.39,56.83Q514.81,56.83 512.18,58.46Q509.54,60.09 508.09,63.01Q506.65,65.93 506.65,69.80L506.65,103.68Z" fill="#0B1416"/>
</svg>
